<svg xmlns="http://www.w3.org/2000/svg" width="16.107" height="14.868" viewBox="0 0 16.107 14.868"><defs><style>.a{fill:#c4c7c4;}</style></defs><g transform="translate(-3.375 -4.5)"><path class="a" d="M4.614,24.423H18.243a1.238,1.238,0,0,0,1.239-1.239V15.75H3.375v7.434A1.238,1.238,0,0,0,4.614,24.423Z" transform="translate(0 -5.055)"/><path class="a" d="M18.243,6.978h-.31v-.31a.311.311,0,0,0-.31-.31H16.385a.311.311,0,0,0-.31.31v.31H14.991V5.739A1.243,1.243,0,0,0,13.752,4.5H9.106A1.243,1.243,0,0,0,7.866,5.739V6.978H6.782v-.31a.311.311,0,0,0-.31-.31H5.234a.311.311,0,0,0-.31.31v.31h-.31A1.238,1.238,0,0,0,3.375,8.217V9.766H19.482V8.217A1.238,1.238,0,0,0,18.243,6.978Zm-4.337,0H8.951V5.894a.311.311,0,0,1,.31-.31H13.6a.311.311,0,0,1,.31.31Z"/></g></svg>