<svg xmlns="http://www.w3.org/2000/svg" width="48" height="47.976" viewBox="0 0 48 47.976"><defs><style>.a{fill:#63aabc;}</style></defs><g transform="translate(3.142)"><path class="a" d="M57.834,22.429V1.3A1.3,1.3,0,0,0,56.562,0H29.384a1.3,1.3,0,0,0-1.3,1.3V21.133H14.3a1.3,1.3,0,0,0-1.3,1.3V36.174a1.3,1.3,0,0,0,2.591,0V23.724H34.133V42.267H21.684a1.3,1.3,0,0,0,0,2.591H56.562a1.3,1.3,0,0,0,1.3-1.3V22.429ZM30.679,2.591H55.267V19.838l-8.492-6.453a1.3,1.3,0,0,0-1.559,0L34.973,21.133H30.679Zm6.021,39.7V23.1l9.283-7.052L55.243,23.1v19.19Z" transform="translate(-13 0)"/><circle class="a" cx="1.487" cy="1.487" r="1.487" transform="translate(6.693 27.97)"/><path class="a" d="M43.875,148.487a1.487,1.487,0,1,0-1.487,1.487A1.487,1.487,0,0,0,43.875,148.487Z" transform="translate(-34.207 -111.738)"/><circle class="a" cx="1.487" cy="1.487" r="1.487" transform="translate(13.817 27.97)"/><path class="a" d="M72.087,149.975a1.487,1.487,0,1,0-1.487-1.487,1.487,1.487,0,0,0,1.487,1.487Z" transform="translate(-56.783 -111.738)"/><path class="a" d="M133.287,116.6h0a1.487,1.487,0,1,0,0,2.975h0a1.487,1.487,0,0,0,0-2.975Z" transform="translate(-103.302 -88.63)"/><path class="a" d="M133.287,146.9h0a1.487,1.487,0,1,0,0,2.975h0a1.487,1.487,0,0,0,0-2.975Z" transform="translate(-103.302 -111.662)"/><circle class="a" cx="1.487" cy="1.487" r="1.487" transform="translate(35.622 27.97)"/><path class="a" d="M162.987,146.9a1.487,1.487,0,1,0,1.487,1.487A1.487,1.487,0,0,0,162.987,146.9Z" transform="translate(-125.878 -111.662)"/><path class="a" d="M133.287,32.175h0a1.487,1.487,0,0,0,0-2.975h0a1.487,1.487,0,1,0,0,2.975Z" transform="translate(-103.302 -22.195)"/><path class="a" d="M162.987,32.175a1.487,1.487,0,1,0-1.487-1.487A1.487,1.487,0,0,0,162.987,32.175Z" transform="translate(-125.878 -22.195)"/><path class="a" d="M103.587,32.175a1.487,1.487,0,1,0-1.487-1.487A1.487,1.487,0,0,0,103.587,32.175Z" transform="translate(-80.727 -22.195)"/><path class="a" d="M103.587,62.475a1.487,1.487,0,0,0,1.487-1.487h0a1.487,1.487,0,0,0-2.975,0h0A1.487,1.487,0,0,0,103.587,62.475Z" transform="translate(-80.727 -45.227)"/></g><path class="a" d="M8.728,167.614A4.414,4.414,0,1,1,4.314,163.2a4.414,4.414,0,0,1,4.414,4.414" transform="translate(0.1 -124.052)"/></svg>