<svg xmlns="http://www.w3.org/2000/svg" width="85" height="84.958" viewBox="0 0 85 84.958"><defs><style>.a{fill:#fff;}.b{fill:#00c73c;}</style></defs><g transform="translate(42.5 42.479)"><g transform="translate(-42.5 -42.479)"><g transform="translate(5.565)"><path class="a" d="M92.393,39.718V2.294A2.294,2.294,0,0,0,90.141,0H42.013a2.294,2.294,0,0,0-2.294,2.294v35.13H15.294A2.294,2.294,0,0,0,13,39.718v24.34a2.294,2.294,0,0,0,4.588,0V42.011H50.424V74.848H28.377a2.294,2.294,0,0,0,0,4.588H90.141a2.294,2.294,0,0,0,2.294-2.294V39.718ZM44.307,4.588H87.848V35.13L72.81,23.7a2.294,2.294,0,0,0-2.761,0L51.911,37.424h-7.6Zm10.662,70.3V40.907L71.408,28.418l16.4,12.489V74.89Z" transform="translate(-13 0)"/><circle class="a" cx="2.634" cy="2.634" r="2.634" transform="translate(11.852 49.53)"/><path class="a" d="M46.167,149.634a2.634,2.634,0,1,0-2.634,2.634A2.634,2.634,0,0,0,46.167,149.634Z" transform="translate(-29.048 -84.556)"/><circle class="a" cx="2.634" cy="2.634" r="2.634" transform="translate(24.468 49.53)"/><path class="a" d="M73.234,152.267a2.634,2.634,0,1,0-2.634-2.634A2.634,2.634,0,0,0,73.234,152.267Z" transform="translate(-46.132 -84.556)"/><path class="a" d="M134.434,116.6h0a2.634,2.634,0,0,0,0,5.267h0a2.634,2.634,0,0,0,0-5.267Z" transform="translate(-81.335 -67.07)"/><path class="a" d="M134.434,146.9h0a2.634,2.634,0,1,0,0,5.267h0a2.634,2.634,0,0,0,0-5.267Z" transform="translate(-81.335 -84.499)"/><circle class="a" cx="2.634" cy="2.634" r="2.634" transform="translate(63.081 49.53)"/><path class="a" d="M164.134,146.9a2.634,2.634,0,1,0,2.634,2.634A2.634,2.634,0,0,0,164.134,146.9Z" transform="translate(-98.419 -84.499)"/><path class="a" d="M134.434,34.467h0a2.634,2.634,0,1,0,0-5.267h0a2.634,2.634,0,0,0,0,5.267Z" transform="translate(-81.335 -16.796)"/><path class="a" d="M164.134,34.467a2.634,2.634,0,1,0-2.634-2.634,2.634,2.634,0,0,0,2.634,2.634Z" transform="translate(-98.419 -16.796)"/><path class="a" d="M104.734,34.467a2.634,2.634,0,1,0-2.634-2.634,2.634,2.634,0,0,0,2.634,2.634Z" transform="translate(-64.251 -16.796)"/><path class="a" d="M104.734,64.767a2.634,2.634,0,0,0,2.634-2.634h0a2.634,2.634,0,1,0-5.267,0h0a2.634,2.634,0,0,0,2.634,2.634Z" transform="translate(-64.251 -34.225)"/></g><path class="b" d="M15.532,171.016A7.816,7.816,0,1,1,7.716,163.2a7.816,7.816,0,0,1,7.816,7.816" transform="translate(0.1 -93.875)"/></g></g></svg>