<svg xmlns="http://www.w3.org/2000/svg" width="48" height="38.736" viewBox="0 0 48 38.736"><defs><style>.a{fill:#fec559;}</style></defs><g transform="translate(0)"><path class="a" d="M3.5,132.2a3.5,3.5,0,1,0,3.5,3.5,3.5,3.5,0,0,0-3.5-3.5Z" transform="translate(0 -100.472)"/><path class="a" d="M77.99,3.48H88.406a1.74,1.74,0,0,0,0-3.48H77.99a1.74,1.74,0,1,0,0,3.48Z" transform="translate(-57.95 0)"/><path class="a" d="M51.668,0h-5.4a1.74,1.74,0,1,0,0,3.48H49.94V6.935H10.772l-.192.048v-3.5h4.056a1.74,1.74,0,0,0,0-3.48H8.852A1.728,1.728,0,0,0,7.1,1.727V28.343a1.74,1.74,0,1,0,3.48,0V10.367l.192.048H49.916V25.127a8.448,8.448,0,0,1-8.424,8.424H16.94a1.74,1.74,0,0,0,0,3.48H41.492a11.9,11.9,0,0,0,11.9-11.9V1.727A1.728,1.728,0,0,0,51.668,0Z" transform="translate(-5.396 0.001)"/><path class="a" d="M52.52,3.94A1.92,1.92,0,1,0,50.6,2.02,1.92,1.92,0,0,0,52.52,3.94Z" transform="translate(-38.456 -0.076)"/><path class="a" d="M142.52,3.94a1.92,1.92,0,1,0-1.92-1.92A1.92,1.92,0,0,0,142.52,3.94Z" transform="translate(-106.856 -0.076)"/><path class="a" d="M46.59,85.38h3.6a1.74,1.74,0,0,0,0-3.48h-3.6a1.74,1.74,0,1,0,0,3.48Z" transform="translate(-34.086 -62.244)"/><path class="a" d="M46.59,107.88h3.6a1.74,1.74,0,0,0,0-3.48h-3.6a1.74,1.74,0,1,0,0,3.48Z" transform="translate(-34.086 -79.344)"/><path class="a" d="M46.59,62.88h3.6a1.74,1.74,0,0,0,0-3.48h-3.6a1.74,1.74,0,0,0,0,3.48Z" transform="translate(-34.086 -45.144)"/><path class="a" d="M91.59,85.38h3.6a1.74,1.74,0,0,0,0-3.48h-3.6a1.74,1.74,0,0,0,0,3.48Z" transform="translate(-68.286 -62.244)"/><path class="a" d="M91.59,107.88h3.6a1.74,1.74,0,0,0,0-3.48h-3.6a1.74,1.74,0,1,0,0,3.48Z" transform="translate(-68.286 -79.344)"/><path class="a" d="M91.59,62.88h3.6a1.74,1.74,0,0,0,0-3.48h-3.6a1.74,1.74,0,0,0,0,3.48Z" transform="translate(-68.286 -45.144)"/><path class="a" d="M134.99,85.38h3.6a1.74,1.74,0,0,0,0-3.48h-3.6a1.74,1.74,0,0,0,0,3.48Z" transform="translate(-101.27 -62.244)"/><path class="a" d="M134.99,62.88h3.6a1.74,1.74,0,0,0,0-3.48h-3.6a1.74,1.74,0,0,0,0,3.48Z" transform="translate(-101.27 -45.144)"/></g></svg>