<svg xmlns="http://www.w3.org/2000/svg" width="14" height="16" viewBox="0 0 14 16"><defs><style>.a{fill:#c4c7c4;}</style></defs><path class="a" d="M.375,6h13.25A.376.376,0,0,1,14,6.375V14.5A1.5,1.5,0,0,1,12.5,16H1.5A1.5,1.5,0,0,1,0,14.5V6.375A.376.376,0,0,1,.375,6ZM14,4.625V3.5A1.5,1.5,0,0,0,12.5,2H11V.375A.376.376,0,0,0,10.625,0H9.375A.376.376,0,0,0,9,.375V2H5V.375A.376.376,0,0,0,4.625,0H3.375A.376.376,0,0,0,3,.375V2H1.5A1.5,1.5,0,0,0,0,3.5V4.625A.376.376,0,0,0,.375,5h13.25A.376.376,0,0,0,14,4.625Z"/></svg>