<svg xmlns="http://www.w3.org/2000/svg" width="352" height="435.484" viewBox="0 0 352 435.484"><defs><style>.a{opacity:0.05;}.b{fill:#3f3f3f;}.c{fill:##FE9201;}</style></defs><g class="a" transform="translate(176 217.742)"><g transform="translate(-176 -217.742)"><path class="b" d="M292.606,176.6h-2.612V114.345a114.395,114.395,0,0,0-228.789,0V176.6H58.81A55.51,55.51,0,0,0,3.3,232.114v85.333a16.327,16.327,0,0,0,32.653,0V232.114A23.075,23.075,0,0,1,58.81,209.256h233.8a23.075,23.075,0,0,1,23.075,22.858v137.36a23.075,23.075,0,0,1-23.075,22.857H110.838a16.327,16.327,0,0,0,0,32.653H292.606a55.51,55.51,0,0,0,55.51-55.51V232.114a55.51,55.51,0,0,0-55.51-55.51ZM93.858,114.345a81.85,81.85,0,0,1,163.7,0V176.6H93.858Z" transform="translate(3.884 0.05)"/><path class="c" d="M73.143,202.971A36.571,36.571,0,1,1,36.571,166.4a36.571,36.571,0,0,1,36.571,36.571" transform="translate(0 195.941)"/></g></g></svg>