<?xml version="1.0" encoding="utf-8"?>
<!-- Generator: Adobe Illustrator 23.0.3, SVG Export Plug-In . SVG Version: 6.00 Build 0)  -->
<svg version="1.1" id="Capa_1" xmlns="http://www.w3.org/2000/svg" xmlns:xlink="http://www.w3.org/1999/xlink" x="0px" y="0px"
	 viewBox="0 0 200 200" style="enable-background:new 0 0 200 200;" xml:space="preserve">
<style type="text/css">
	.st0{fill:#00C83C;}
	.st1{fill:#FE9200;}
	.st2{fill:#02B1FF;}
	.st3{fill:#F28913;}
	.st4{fill:#F18A00;}
	.st5{fill:#00B2E8;}
	.st6{fill:#00B2E3;}
	.st7{fill:#3F3F3F;}
	.st8{fill:#232120;}
	.st9{fill:#3D3935;}
	.st10{fill:#009B3E;}
	.st11{fill:#009845;}
	.st12{fill:#FFFFFF;}
	.st13{fill:#6F6F6E;}
	.st14{fill:none;stroke:#00C83C;stroke-width:3.6354;stroke-miterlimit:10;}
	.st15{fill:none;stroke:#FFFFFF;stroke-width:3.6354;stroke-miterlimit:10;}
	.st16{fill:none;stroke:#3F3F3F;stroke-width:2.5387;stroke-linecap:round;stroke-linejoin:round;stroke-miterlimit:10;}
	.st17{fill:none;stroke:#00C73C;stroke-width:2.5387;stroke-linecap:round;stroke-linejoin:round;stroke-miterlimit:10;}
	.st18{fill:none;stroke:#3F3F3F;stroke-width:2.4753;stroke-linecap:round;stroke-linejoin:round;stroke-miterlimit:10;}
	.st19{fill:none;stroke:#3F3F3F;stroke-width:2.4991;stroke-linecap:round;stroke-linejoin:round;stroke-miterlimit:10;}
	.st20{fill:none;stroke:#3F3F3F;stroke-width:2.7605;stroke-linecap:round;stroke-linejoin:round;stroke-miterlimit:10;}
	.st21{fill:none;stroke:#3F3F3F;stroke-width:2.1466;stroke-linecap:round;stroke-linejoin:round;stroke-miterlimit:10;}
	.st22{fill:#00C73C;}
	.st23{fill:none;stroke:#3F3F3F;stroke-width:2;stroke-linecap:round;stroke-linejoin:round;stroke-miterlimit:10;}
	.st24{fill:#0AC53D;}
	.st25{fill:none;}
	.st26{fill:none;stroke:#3F3F3F;stroke-width:2;stroke-miterlimit:10;}
	.st27{fill:none;stroke:#3F3F3F;stroke-width:12;stroke-linecap:round;stroke-linejoin:round;stroke-miterlimit:10;}
	.st28{fill-rule:evenodd;clip-rule:evenodd;fill:#3F3F3F;}
	.st29{fill:none;stroke:#4D4D4D;stroke-width:0.5;stroke-miterlimit:10;}
	.st30{fill:none;stroke:#666666;stroke-width:0.25;stroke-miterlimit:10;}
	.st31{fill:url(#SVGID_1_);}
	.st32{fill:url(#SVGID_2_);}
	.st33{fill:url(#SVGID_3_);}
	.st34{fill:url(#SVGID_4_);}
	.st35{fill:url(#SVGID_5_);}
	.st36{fill:url(#SVGID_6_);}
	.st37{fill:none;stroke:#3D3935;stroke-miterlimit:10;}
	.st38{fill:#3F3F3F;stroke:#40403F;stroke-width:0.3248;stroke-miterlimit:10;}
	.st39{fill:#3F3F3F;stroke:#3F3F3F;stroke-width:5;stroke-linecap:round;stroke-linejoin:round;stroke-miterlimit:10;}
</style>
<g>
	<path class="st7" d="M79.42,156.68c0,14.12-11.45,25.57-25.57,25.57c-14.15,0-25.6-11.45-25.6-25.57
		c0-14.14,11.45-25.59,25.6-25.59C67.97,131.09,79.42,142.54,79.42,156.68"/>
	<path class="st7" d="M133.99,177.22c0,12.58-10.2,22.78-22.78,22.78c-12.58,0-22.76-10.2-22.76-22.78
		c0-12.58,10.18-22.78,22.76-22.78C123.79,154.44,133.99,164.64,133.99,177.22"/>
	<path class="st7" d="M179.54,154.44c0,10.06-8.15,18.23-18.21,18.23c-10.08,0-18.23-8.17-18.23-18.23
		c0-10.05,8.15-18.21,18.23-18.21C171.38,136.23,179.54,144.4,179.54,154.44"/>
	<path class="st7" d="M193.2,108.9c0,7.56-6.12,13.66-13.66,13.66c-7.56,0-13.66-6.11-13.66-13.66c0-7.56,6.11-13.65,13.66-13.65
		C187.08,95.25,193.2,101.34,193.2,108.9"/>
	<path class="st7" d="M184.1,67.9c0,5.04-4.09,9.1-9.1,9.1c-5.04,0-9.11-4.06-9.11-9.1c0-5.04,4.08-9.1,9.11-9.1
		C180,58.8,184.1,62.86,184.1,67.9"/>
	<path class="st7" d="M156.77,45.13c0,2.52-2.05,4.55-4.56,4.55c-2.52,0-4.53-2.03-4.53-4.55c0-2.52,2.02-4.56,4.53-4.56
		C154.72,40.57,156.77,42.62,156.77,45.13"/>
	<path class="st7" d="M60.76,90.68c0,14.9-12.09,26.98-26.99,26.98c-14.89,0-26.98-12.08-26.98-26.98
		c0-14.9,12.09-26.98,26.98-26.98C48.67,63.7,60.76,75.78,60.76,90.68"/>
	<path class="st22" d="M110.8,31.46c0,17.37-14.09,31.46-31.46,31.46S47.87,48.84,47.87,31.46C47.87,14.09,61.96,0,79.33,0
		S110.8,14.09,110.8,31.46"/>
</g>
</svg>
