<svg xmlns="http://www.w3.org/2000/svg" width="48" height="34.944" viewBox="0 0 48 34.944"><defs><style>.a{fill:#00c73c;}.b{fill:#3f3f3f;}</style></defs><path class="a" d="M8.928,112.864A4.464,4.464,0,1,1,4.464,108.4a4.464,4.464,0,0,1,4.464,4.464Z" transform="translate(0 -82.384)"/><path class="b" d="M28.82,3.455H14.78V21.839a1.74,1.74,0,1,1-3.48,0V1.727A1.728,1.728,0,0,1,13.052,0H54.86a1.728,1.728,0,0,1,1.728,1.728V30.479a1.728,1.728,0,0,1-1.728,1.728H21.716a1.728,1.728,0,0,1,0-3.456H53.132V3.455Z" transform="translate(-8.588 0.001)"/><path class="b" d="M44.42,63.4H44.4a6.144,6.144,0,0,0-6.1,6.144v1.008a2.736,2.736,0,0,0,2.736,2.736H47.8a2.736,2.736,0,0,0,2.736-2.736V69.544A6.144,6.144,0,0,0,44.42,63.4Zm-2.256,6.72H41.42v-.576a2.988,2.988,0,1,1,5.976,0v.6H42.164Z" transform="translate(-29.108 -48.184)"/><path class="b" d="M51.26,36.268A3.984,3.984,0,1,1,54.1,35.1,3.984,3.984,0,0,1,51.26,36.268Zm0-5.184a.5.5,0,1,0,0-.024Z" transform="translate(-35.948 -21.508)"/><path class="b" d="M106.96,94.22a1.56,1.56,0,0,1,0-3.12h13.608a1.56,1.56,0,0,1,0,3.12Z" transform="translate(-80.104 -69.236)"/><path class="b" d="M106.96,70.52a1.56,1.56,0,0,1,0-3.12h13.608a1.56,1.56,0,0,1,0,3.12Z" transform="translate(-80.104 -51.224)"/><path class="b" d="M106.96,46.72a1.56,1.56,0,0,1,0-3.12h6.816a1.56,1.56,0,0,1,0,3.12Z" transform="translate(-80.104 -33.136)"/></svg>