<?xml version="1.0" encoding="utf-8"?>
<!-- Generator: Adobe Illustrator 23.0.3, SVG Export Plug-In . SVG Version: 6.00 Build 0)  -->
<svg version="1.1" id="Capa_1" xmlns="http://www.w3.org/2000/svg" xmlns:xlink="http://www.w3.org/1999/xlink" x="0px" y="0px"
	 viewBox="0 0 200 200" style="enable-background:new 0 0 200 200;" xml:space="preserve">
<style type="text/css">
	.st0{fill:#A5D7E1;}
	.st1{fill:#FE9200;}
	.st2{fill:#02B1FF;}
	.st3{fill:#F28913;}
	.st4{fill:#F18A00;}
	.st5{fill:#00B2E8;}
	.st6{fill:#00B2E3;}
	.st7{fill:#A5D7E1;}
	.st8{fill:#232120;}
	.st9{fill:#3D3935;}
	.st10{fill:#009B3E;}
	.st11{fill:#009845;}
	.st12{fill:#FFFFFF;}
	.st13{fill:#6F6F6E;}
	.st14{fill:none;stroke:#A5D7E1;stroke-width:3.6354;stroke-miterlimit:10;}
	.st15{fill:none;stroke:#FFFFFF;stroke-width:3.6354;stroke-miterlimit:10;}
	.st16{fill:none;stroke:#A5D7E1;stroke-width:2.5387;stroke-linecap:round;stroke-linejoin:round;stroke-miterlimit:10;}
	.st17{fill:none;stroke:#A5D7E1;stroke-width:2.5387;stroke-linecap:round;stroke-linejoin:round;stroke-miterlimit:10;}
	.st18{fill:none;stroke:#A5D7E1;stroke-width:2.4753;stroke-linecap:round;stroke-linejoin:round;stroke-miterlimit:10;}
	.st19{fill:none;stroke:#A5D7E1;stroke-width:2.4991;stroke-linecap:round;stroke-linejoin:round;stroke-miterlimit:10;}
	.st20{fill:none;stroke:#A5D7E1;stroke-width:2.7605;stroke-linecap:round;stroke-linejoin:round;stroke-miterlimit:10;}
	.st21{fill:none;stroke:#A5D7E1;stroke-width:2.1466;stroke-linecap:round;stroke-linejoin:round;stroke-miterlimit:10;}
	.st22{fill:#A5D7E1;}
	.st23{fill:none;stroke:#A5D7E1;stroke-width:2;stroke-linecap:round;stroke-linejoin:round;stroke-miterlimit:10;}
	.st24{fill:#0AC53D;}
	.st25{fill:none;}
	.st26{fill:none;stroke:#A5D7E1;stroke-width:2;stroke-miterlimit:10;}
	.st27{fill:none;stroke:#A5D7E1;stroke-width:12;stroke-linecap:round;stroke-linejoin:round;stroke-miterlimit:10;}
	.st28{fill-rule:evenodd;clip-rule:evenodd;fill:#A5D7E1;}
	.st29{fill:none;stroke:#4D4D4D;stroke-width:0.5;stroke-miterlimit:10;}
	.st30{fill:none;stroke:#666666;stroke-width:0.25;stroke-miterlimit:10;}
	.st31{fill:url(#SVGID_1_);}
	.st32{fill:url(#SVGID_2_);}
	.st33{fill:url(#SVGID_3_);}
	.st34{fill:url(#SVGID_4_);}
	.st35{fill:url(#SVGID_5_);}
	.st36{fill:url(#SVGID_6_);}
	.st37{fill:none;stroke:#3D3935;stroke-miterlimit:10;}
	.st38{fill:#A5D7E1;stroke:#40403F;stroke-width:0.3248;stroke-miterlimit:10;}
	.st39{fill:#A5D7E1;stroke:#A5D7E1;stroke-width:5;stroke-linecap:round;stroke-linejoin:round;stroke-miterlimit:10;}
</style>
<g>
	<path class="st22" d="M37.23,167.63c0,10.28-8.33,18.62-18.62,18.62C8.33,186.25,0,177.91,0,167.63c0-10.29,8.33-18.62,18.61-18.62
		C28.9,149.01,37.23,157.34,37.23,167.63L37.23,167.63z"/>
	<path class="st7" d="M84.26,55.08H25.84v76.57c0,3.99-3.23,7.22-7.23,7.22c-3.99,0-7.22-3.23-7.22-7.22V47.86
		c0-3.99,3.23-7.22,7.22-7.22h174.17c3.99,0,7.22,3.23,7.22,7.22v119.77c0,3.99-3.23,7.22-7.22,7.22H54.66
		c-3.99,0-7.22-3.23-7.22-7.22c0-4,3.23-7.23,7.22-7.23h130.89V55.08h-58.42H84.26z"/>
	<path class="st7" d="M63.81,104.07L63.81,104.07c-0.01,0-0.02,0-0.03,0s-0.02,0-0.03,0v0c-14.05,0.03-25.48,11.47-25.48,25.53v4.2
		c0,6.27,5.1,11.38,11.37,11.38h4.77h18.72h4.77c6.27,0,11.37-5.1,11.37-11.38v-4.2C89.28,115.54,77.86,104.1,63.81,104.07z
		 M54.42,132.1h-3.08v-2.51c0-6.86,5.58-12.44,12.44-12.46c6.86,0.01,12.44,5.6,12.44,12.46v2.51h-3.08H54.42z"/>
	<path class="st7" d="M63.85,102.11c-9.17,0-16.63-7.46-16.63-16.62c0-9.17,7.46-16.63,16.63-16.63s16.63,7.46,16.63,16.63
		C80.48,94.65,73.02,102.11,63.85,102.11z M63.85,80.48c-2.76,0-5.01,2.25-5.01,5.01c0,2.76,2.25,5,5.01,5c2.76,0,5-2.24,5-5
		C68.85,82.72,66.6,80.48,63.85,80.48z"/>
	<path class="st7" d="M111.94,144.71c-3.57,0-6.48-2.91-6.48-6.48c0-3.57,2.91-6.48,6.48-6.48h56.74c3.58,0,6.48,2.91,6.48,6.48
		c0,3.57-2.91,6.48-6.48,6.48H111.94z"/>
	<path class="st7" d="M111.94,120.99c-3.57,0-6.48-2.91-6.48-6.48c0-3.57,2.91-6.48,6.48-6.48h56.74c3.58,0,6.48,2.91,6.48,6.48
		c0,3.57-2.91,6.48-6.48,6.48H111.94z"/>
	<path class="st7" d="M111.94,97.27c-3.57,0-6.48-2.91-6.48-6.48c0-3.57,2.91-6.48,6.48-6.48h28.37c3.58,0,6.48,2.91,6.48,6.48
		c0,3.57-2.91,6.48-6.48,6.48H111.94z"/>
</g>
</svg>
