<svg xmlns="http://www.w3.org/2000/svg" width="48" height="44.912" viewBox="0 0 48 44.912"><defs><style>.a{fill:#5fa9a6;}</style></defs><g transform="translate(24 22.456)"><g transform="translate(-24 -22.456)"><path class="a" d="M8.331,115.166A4.166,4.166,0,1,1,4.166,111a4.166,4.166,0,0,1,4.166,4.166" transform="translate(0 -84.426)"/><path class="a" d="M12.38,23.82a1.58,1.58,0,0,1-1.58-1.58V1.58a1.58,1.58,0,0,1,3.16,0V22.24A1.58,1.58,0,0,1,12.38,23.82Z" transform="translate(-8.214)"/><path class="a" d="M12.38,163.085a1.58,1.58,0,0,1-1.58-1.58V156.98a1.58,1.58,0,0,1,3.16,0v2.969H54.634a1.58,1.58,0,0,1,0,3.16Z" transform="translate(-8.214 -118.197)"/><path class="a" d="M56.519,53.523a5,5,0,0,1-5-5,4.86,4.86,0,0,1,.263-1.556l-4.74-2.993a4.836,4.836,0,0,1-4.142.359l-.12.168-3.543,3.5a1.583,1.583,0,1,1-2.226-2.25l3.4-3.352a5,5,0,1,1,8.762-.79l4.477,2.849a4.9,4.9,0,0,1,5.267-.311L65.856,37.2A4.932,4.932,0,0,1,64.827,34.2a5,5,0,1,1,5,5,4.836,4.836,0,0,1-1.412-.215,1.484,1.484,0,0,1-.287.383l-7.062,7.086a4.932,4.932,0,0,1,.455,2.059A5,5,0,0,1,56.519,53.523Zm0-6.847a1.843,1.843,0,1,0,1.843,1.843A1.843,1.843,0,0,0,56.519,46.676ZM44.6,37.771a1.843,1.843,0,1,0,1.843,1.843A1.843,1.843,0,0,0,44.6,37.771ZM69.83,32.36A1.843,1.843,0,1,0,71.673,34.2,1.843,1.843,0,0,0,69.83,32.36Z" transform="translate(-27.791 -22.209)"/></g></g></svg>