<svg xmlns="http://www.w3.org/2000/svg" width="43.946" height="48" viewBox="0 0 43.946 48"><defs><style>.a{fill:#63aabc;}</style></defs><g transform="translate(43.946) rotate(90)"><path class="a" d="M43.2,0H12.042a4.942,4.942,0,0,0-4.8,4.8,1.343,1.343,0,0,0,0,.144V26.987a1.319,1.319,0,1,0,2.639,0V4.942a2.3,2.3,0,0,1,2.3-2.3H38.717A4.918,4.918,0,0,0,38.141,4.8a1.346,1.346,0,0,0,0,.144V39a2.3,2.3,0,1,1-4.606,0,1.319,1.319,0,0,0-1.319-1.319H1.319A1.319,1.319,0,0,0,0,39a4.942,4.942,0,0,0,4.8,4.942h31.16a4.942,4.942,0,0,0,4.8-4.8,1.346,1.346,0,0,0,0-.144V6.261h5.925A1.319,1.319,0,0,0,48,4.942,4.942,4.942,0,0,0,43.2,0ZM3.046,40.324H31.088a4.918,4.918,0,0,0,.384.984H4.942a2.3,2.3,0,0,1-1.9-.984Zm38.141-36.7a2.3,2.3,0,0,1,3.766,0Z" transform="translate(0)"/><path class="a" d="M29.189,127.794a3.094,3.094,0,1,1-3.094-3.094,3.094,3.094,0,0,1,3.094,3.094" transform="translate(-17.483 -94.787)"/></g></svg>