<svg xmlns="http://www.w3.org/2000/svg" width="48" height="47.998" viewBox="0 0 48 47.998"><defs><style>.a{fill:#00c83c;}.b{fill:#fff;}</style></defs><g transform="translate(24 23.999)"><g transform="translate(-24 -23.999)"><path class="a" d="M30.964,162.232a4.032,4.032,0,1,1-4.032-4.032,4.032,4.032,0,0,1,4.032,4.032" transform="translate(-17.404 -120.233)"/><path class="b" d="M24,47.995a23.975,23.975,0,0,1-7.776-1.3,1.9,1.9,0,0,1,1.224-3.576,20.207,20.207,0,1,0-10.583-8.4,1.9,1.9,0,0,1-3.216,1.992A24,24,0,1,1,24,47.995" transform="translate(0.002 0.003)"/><path class="b" d="M51.758,82.257a1.8,1.8,0,0,1-1.272-.528L42.47,73.713a1.8,1.8,0,0,1,2.544-2.544l6.72,6.72L68.053,61.57A1.8,1.8,0,0,1,70.6,64.114L53.03,81.729a1.8,1.8,0,0,1-1.272.528Z" transform="translate(-31.91 -46.426)"/></g></g></svg>