<svg xmlns="http://www.w3.org/2000/svg" width="32" height="31.999" viewBox="0 0 32 31.999"><defs><style>.a{fill:#3f3f3f;}</style></defs><circle class="a" cx="1.264" cy="1.264" r="1.264" transform="translate(14.543 7.04)"/><path class="a" d="M28.276,160.888a2.688,2.688,0,1,1-2.688-2.688,2.688,2.688,0,0,1,2.688,2.688" transform="translate(-19.236 -132.889)"/><path class="a" d="M16,32a15.983,15.983,0,0,1-5.184-.864,1.264,1.264,0,0,1,.816-2.384,13.471,13.471,0,1,0-7.056-5.6A1.264,1.264,0,0,1,2.43,24.476,16,16,0,1,1,16,32" transform="translate(0.002 0.003)"/><path class="a" d="M92.164,90.159A1.264,1.264,0,0,1,90.9,88.9V78.464a1.264,1.264,0,1,1,2.528,0V88.9a1.264,1.264,0,0,1-1.264,1.264" transform="translate(-76.357 -64.848)"/></svg>