<svg xmlns="http://www.w3.org/2000/svg" width="65" height="73.216" viewBox="0 0 65 73.216"><defs><style>.a{fill:#0ac33d;}.b{fill:#3f3f3f;}</style></defs><g transform="translate(32.5 36.608)"><g transform="translate(-32.5 -36.608)"><path class="a" d="M12.717,163.4a6.358,6.358,0,1,1-1.849-4.521,6.358,6.358,0,0,1,1.849,4.521" transform="translate(0 -96.5)"/><path class="b" d="M48.413,130.407a3.507,3.507,0,1,1-3.507-3.507,3.507,3.507,0,0,1,3.507,3.507" transform="translate(-25.447 -77.999)"/><path class="b" d="M69.1,39.342H43.864a3.006,3.006,0,1,1,0-5.973H69.1a3.006,3.006,0,1,1,0,5.973" transform="translate(-24.905 -20.499)"/><path class="b" d="M62.476,70.942H43.864a3.006,3.006,0,1,1,0-5.973H62.476a3.006,3.006,0,1,1,0,5.973" transform="translate(-24.905 -39.921)"/><path class="b" d="M50.261,102.542h-6.4a3.006,3.006,0,1,1,0-5.973h6.4a3.006,3.006,0,1,1,0,5.973" transform="translate(-24.905 -59.344)"/><path class="b" d="M70.1,74.232l-2.2,8.824,8.824-2.2L105.086,52.5a4.7,4.7,0,1,0-6.628-6.628Z" transform="translate(-41.735 -27.181)"/><path class="b" d="M53.878,0H20.469A12.023,12.023,0,0,0,8.6,11.984V54.142a2.986,2.986,0,1,0,5.973,0V11.984a6.05,6.05,0,0,1,6.05-6.011h33.14a6.05,6.05,0,0,1,6.05,6.012v.963a2.986,2.986,0,1,0,5.973,0v-.963A12.023,12.023,0,0,0,53.878,0Z" transform="translate(-5.286)"/><path class="b" d="M83.393,91.3a2.967,2.967,0,0,0-3.006,3.006v1.888h0v17.842a6.05,6.05,0,0,1-6.012,6.05H44.935a3.006,3.006,0,0,0-2.967,3.353,3.083,3.083,0,0,0,3.083,2.62H74.337A12.023,12.023,0,0,0,86.36,114.035V94.305A2.967,2.967,0,0,0,83.393,91.3Z" transform="translate(-25.783 -56.117)"/></g></g></svg>