<svg xmlns="http://www.w3.org/2000/svg" width="300" height="300" viewBox="0 0 300 300"><defs><style>.a,.b{fill:#fff;}.a,.c{opacity:0.5;}.c,.g{fill:none;}.c{stroke:#fff;stroke-width:2px;}.d{fill:#3f3f3f;}.e{fill:#00c73c;}.f{stroke:none;}</style></defs><g transform="translate(12.14 -92)"><circle class="a" cx="128.939" cy="128.939" r="128.939" transform="translate(8.922 113.051)"/><circle class="b" cx="106.384" cy="106.384" r="106.384" transform="translate(31.86 136)"/><g class="c" transform="translate(-12.14 92)"><circle class="f" cx="150" cy="150" r="150"/><circle class="g" cx="150" cy="150" r="149"/></g><g transform="translate(130.36 234.487)"><g transform="translate(-42.5 -42.487)"><path class="d" d="M81.126,0A31.086,31.086,0,0,0,57.008,50.674l-5.139,5.139-2.748-2.747a3.155,3.155,0,0,0-4.478,0L22.2,75.554a3.166,3.166,0,0,0,4.478,4.477l20.2-20.2,5.5,5.495-20.2,20.2A3.166,3.166,0,0,0,36.655,90L59.094,67.566a3.154,3.154,0,0,0,0-4.477l-2.748-2.747L61.486,55.2A31.088,31.088,0,1,0,81.126,0Zm0,55.813A24.682,24.682,0,0,1,63.67,48.585l-.047,0a24.73,24.73,0,1,1,17.5,7.276Z" transform="translate(-12.195)"/><path class="e" d="M15.111,171.805A7.605,7.605,0,1,1,7.505,164.2a7.605,7.605,0,0,1,7.605,7.605" transform="translate(0.1 -79.44)"/></g></g></g></svg>