<svg xmlns="http://www.w3.org/2000/svg" width="85" height="82.656" viewBox="0 0 85 82.656"><defs><style>.a{opacity:1;}.b{fill:#000000;}.c{fill:#00c73c;}</style></defs><g class="a" transform="translate(42.5 41.328)"><g transform="translate(-42.5 -41.328)"><g transform="translate(0 35.57)"><path class="b" d="M42.956,92.459H67.944a13.429,13.429,0,0,1,13.429,13.429v7.437a2.8,2.8,0,1,1-5.61,0v-7.437a7.819,7.819,0,0,0-7.819-7.819H37.134a3.612,3.612,0,0,0-2.8,5.907h0l.68.637.085.085h.042a3.612,3.612,0,0,0,2.04.637H53.24a2.8,2.8,0,1,1,0,5.61H37.134a9.264,9.264,0,0,1-6.757-2.975L11.806,91.014l-.085-.085a3.621,3.621,0,1,0-5.1,5.142l16.4,15.171A39.777,39.777,0,0,0,50.818,122.5H66.5a2.8,2.8,0,0,1,0,5.61H50.818a45.561,45.561,0,0,1-31.666-12.8l-16.4-15.208A9.222,9.222,0,0,1,9.128,84.3h.085a9.179,9.179,0,0,1,6.417,2.592L28.464,98.621l.212-.51a9.264,9.264,0,0,1,8.117-5.567h6.162Z" transform="translate(0.015 -84.3)"/><path class="c" d="M183.324,172.262a6.162,6.162,0,1,1-6.162-6.162,6.162,6.162,0,0,1,6.162,6.162" transform="translate(-98.324 -131.338)"/></g><path class="b" d="M104.813,3.192V2.172L104.728,2l-.085-.127-.085-.17-.085-.127-.085-.127-.17-.17h-.127l-.17-.17-.128-.085L103.665.94l-.127-.085L103.41.77l-.127-.085L103.155.6H82.247a3.145,3.145,0,1,0,0,6.29H94.1L74.13,26.863,59.554,12.074a3.145,3.145,0,0,0-4.462,0L37.37,29.838a3.145,3.145,0,0,0,4.42,4.42L57.3,18.789,71.835,33.323a3.145,3.145,0,0,0,4.462,0L98.523,11.1V22.953a3.145,3.145,0,1,0,6.29,0V3.192Z" transform="translate(-21.088 -0.6)"/></g></g></svg>