<svg xmlns="http://www.w3.org/2000/svg" width="300" height="300" viewBox="0 0 300 300"><defs><style>.a,.b{fill:#fff;}.a,.c{opacity:0.5;}.c,.g{fill:none;}.c{stroke:#fff;stroke-width:2px;}.d{fill:#3f3f3f;}.e{fill:#00c73c;}.f{stroke:none;}</style></defs><g transform="translate(12.14 -92)"><circle class="a" cx="128.939" cy="128.939" r="128.939" transform="translate(8.922 113.051)"/><circle class="b" cx="106.384" cy="106.384" r="106.384" transform="translate(31.86 136)"/><g class="c" transform="translate(-12.14 92)"><circle class="f" cx="150" cy="150" r="150"/><circle class="g" cx="150" cy="150" r="149"/></g><g transform="translate(137.768 242)"><g transform="translate(-34.908 -50)"><path class="d" d="M3.8,7.6h6V28.636a25.087,25.087,0,0,0,9.1,19.39,3.8,3.8,0,1,0,4.848-5.847,17.491,17.491,0,0,1-6.347-13.493V7.6H52.474V28.636a17.491,17.491,0,0,1-6.347,13.493,3.8,3.8,0,1,0,4.848,5.847,25.087,25.087,0,0,0,9.1-19.341V7.6h5.947a3.8,3.8,0,1,0,0-7.6H3.8a3.8,3.8,0,1,0,0,7.6Z"/><path class="d" d="M66.017,143.5H60.07V122.465a25.087,25.087,0,0,0-9.1-19.34,3.8,3.8,0,1,0-4.848,5.847,17.491,17.491,0,0,1,6.347,13.493V143.5H17.391V122.465a17.491,17.491,0,0,1,6.347-13.493,3.8,3.8,0,1,0-4.848-5.847,25.087,25.087,0,0,0-9.145,19.391v21.039H3.8a3.8,3.8,0,0,0,0,7.6H66.017a3.8,3.8,0,1,0,0-7.6Z" transform="translate(0 -51.15)"/><circle class="e" cx="7.896" cy="7.896" r="7.896" transform="translate(27.036 42.079)"/></g></g></g></svg>