<svg xmlns="http://www.w3.org/2000/svg" width="48" height="46.663" viewBox="0 0 48 46.663"><defs><style>.a{fill:#a5d7e1;}</style></defs><path class="a" d="M24.313,164.656a4.056,4.056,0,1,1-4.056-4.056,4.056,4.056,0,0,1,4.056,4.056" transform="translate(-12.295 -122.05)"/><path class="a" d="M22.1,40.575h-6.24a1.908,1.908,0,0,0,0,3.816H32.71a9.841,9.841,0,0,0,9.841-9.841V19.957h2.52A2.88,2.88,0,0,0,46.679,14.7L25.774.492A2.856,2.856,0,0,0,22.558.468L1.22,14.677a2.88,2.88,0,0,0,1.608,5.28H6V34.31a1.908,1.908,0,0,0,3.816,0V19.957H38.735V34.55a6.024,6.024,0,0,1-4.44,5.784Zm2.04-36.6L42.047,16.141H5.9Z" transform="translate(0.068 0.016)"/><path class="a" d="M80.648,108.369a1.464,1.464,0,0,1-1.464-1.464v-1.8H76.472a1.464,1.464,0,1,1,0-2.9h2.712v-1.3h-.552a3.54,3.54,0,1,1,0-7.08h.552V92.456a1.464,1.464,0,0,1,2.9,0v1.368h2.688a1.464,1.464,0,0,1,0,2.9H82.112v1.248h.672a3.552,3.552,0,0,1,3.528,3.528v.048a3.528,3.528,0,0,1-3.528,3.576h-.7v1.8A1.464,1.464,0,0,1,80.648,108.369Zm2.136-6.168a.624.624,0,0,0,.624-.624v-.048a.624.624,0,0,0-.624-.624h-.7v1.3Zm-4.152-5.448a.624.624,0,1,0,0,1.248h.552V96.753Z" transform="translate(-56.846 -69.291)"/></svg>