<svg xmlns="http://www.w3.org/2000/svg" width="85" height="82.632" viewBox="0 0 85 82.632"><defs><style>.a{opacity:1;}.b{fill:#00c73c;}.c{fill:#000000;}</style></defs><g class="a" transform="translate(42.5 41.316)"><g transform="translate(-42.5 -41.316)"><path class="b" d="M30.566,167.783a7.183,7.183,0,1,1-7.183-7.183,7.183,7.183,0,0,1,7.183,7.183" transform="translate(-9.286 -92.334)"/><path class="c" d="M82.714,26.045,45.694.883A5.058,5.058,0,0,0,40,.841L2.214,26a5.1,5.1,0,0,0,2.848,9.351h5.61V60.77a3.379,3.379,0,1,0,6.758,0V35.353H68.645V61.195a10.668,10.668,0,0,1-7.863,10.243V50.952a8.033,8.033,0,0,0-8.033-8.033H47.224a8.033,8.033,0,0,0-8.033,8.033V71.863H28.14a3.379,3.379,0,0,0,0,6.758H57.977A17.426,17.426,0,0,0,75.4,61.195V35.353h4.463a5.1,5.1,0,0,0,2.848-9.308ZM45.906,50.952a1.275,1.275,0,0,1,1.275-1.275h5.525a1.275,1.275,0,0,1,1.275,1.275V71.863H45.906ZM42.8,7.089,74.511,28.638H10.5Z" transform="translate(0.068 0.016)"/></g></g></svg>