<svg xmlns="http://www.w3.org/2000/svg" width="16" height="12.444" viewBox="0 0 16 12.444"><defs><style>.a{fill:#c4c7c4;}</style></defs><path class="a" d="M14.667,2.25H1.333A1.334,1.334,0,0,0,0,3.583v9.778a1.334,1.334,0,0,0,1.333,1.333H14.667A1.334,1.334,0,0,0,16,13.361V3.583A1.334,1.334,0,0,0,14.667,2.25ZM4.889,4.917A1.778,1.778,0,1,1,3.111,6.694,1.779,1.779,0,0,1,4.889,4.917ZM8,11.494a.583.583,0,0,1-.622.533H2.4a.583.583,0,0,1-.622-.533v-.533a1.749,1.749,0,0,1,1.867-1.6h.139a2.861,2.861,0,0,0,2.211,0h.139A1.749,1.749,0,0,1,8,10.961Zm6.222-1.467A.223.223,0,0,1,14,10.25H10a.223.223,0,0,1-.222-.222V9.583A.223.223,0,0,1,10,9.361h4a.223.223,0,0,1,.222.222Zm0-1.778A.223.223,0,0,1,14,8.472H10a.223.223,0,0,1-.222-.222V7.806A.223.223,0,0,1,10,7.583h4a.223.223,0,0,1,.222.222Zm0-1.778A.223.223,0,0,1,14,6.694H10a.223.223,0,0,1-.222-.222V6.028A.223.223,0,0,1,10,5.806h4a.223.223,0,0,1,.222.222Z" transform="translate(0 -2.25)"/></svg>