<?xml version="1.0" encoding="utf-8"?>
<!-- Generator: Adobe Illustrator 23.0.3, SVG Export Plug-In . SVG Version: 6.00 Build 0)  -->
<svg version="1.1" id="Capa_1" xmlns="http://www.w3.org/2000/svg" xmlns:xlink="http://www.w3.org/1999/xlink" x="0px" y="0px"
	 viewBox="0 0 200 200" style="enable-background:new 0 0 200 200;" xml:space="preserve">
<style type="text/css">
	.st0{fill:#00C83C;}
	.st1{fill:#FE9200;}
	.st2{fill:#02B1FF;}
	.st3{fill:#F28913;}
	.st4{fill:#F18A00;}
	.st5{fill:#00B2E8;}
	.st6{fill:#00B2E3;}
	.st7{fill:#3F3F3F;}
	.st8{fill:#232120;}
	.st9{fill:#3D3935;}
	.st10{fill:#009B3E;}
	.st11{fill:#009845;}
	.st12{fill:#FFFFFF;}
	.st13{fill:#6F6F6E;}
	.st14{fill:none;stroke:#00C83C;stroke-width:3.6354;stroke-miterlimit:10;}
	.st15{fill:none;stroke:#FFFFFF;stroke-width:3.6354;stroke-miterlimit:10;}
	.st16{fill:none;stroke:#3F3F3F;stroke-width:2.5387;stroke-linecap:round;stroke-linejoin:round;stroke-miterlimit:10;}
	.st17{fill:none;stroke:#00C73C;stroke-width:2.5387;stroke-linecap:round;stroke-linejoin:round;stroke-miterlimit:10;}
	.st18{fill:none;stroke:#3F3F3F;stroke-width:2.4753;stroke-linecap:round;stroke-linejoin:round;stroke-miterlimit:10;}
	.st19{fill:none;stroke:#3F3F3F;stroke-width:2.4991;stroke-linecap:round;stroke-linejoin:round;stroke-miterlimit:10;}
	.st20{fill:none;stroke:#3F3F3F;stroke-width:2.7605;stroke-linecap:round;stroke-linejoin:round;stroke-miterlimit:10;}
	.st21{fill:none;stroke:#3F3F3F;stroke-width:2.1466;stroke-linecap:round;stroke-linejoin:round;stroke-miterlimit:10;}
	.st22{fill:#00C73C;}
	.st23{fill:none;stroke:#3F3F3F;stroke-width:2;stroke-linecap:round;stroke-linejoin:round;stroke-miterlimit:10;}
	.st24{fill:#0AC53D;}
	.st25{fill:none;}
	.st26{fill:none;stroke:#3F3F3F;stroke-width:2;stroke-miterlimit:10;}
	.st27{fill:none;stroke:#3F3F3F;stroke-width:12;stroke-linecap:round;stroke-linejoin:round;stroke-miterlimit:10;}
	.st28{fill-rule:evenodd;clip-rule:evenodd;fill:#3F3F3F;}
	.st29{fill:none;stroke:#4D4D4D;stroke-width:0.5;stroke-miterlimit:10;}
	.st30{fill:none;stroke:#666666;stroke-width:0.25;stroke-miterlimit:10;}
	.st31{fill:url(#SVGID_1_);}
	.st32{fill:url(#SVGID_2_);}
	.st33{fill:url(#SVGID_3_);}
	.st34{fill:url(#SVGID_4_);}
	.st35{fill:url(#SVGID_5_);}
	.st36{fill:url(#SVGID_6_);}
	.st37{fill:none;stroke:#3D3935;stroke-miterlimit:10;}
	.st38{fill:#3F3F3F;stroke:#40403F;stroke-width:0.3248;stroke-miterlimit:10;}
	.st39{fill:#3F3F3F;stroke:#3F3F3F;stroke-width:5;stroke-linecap:round;stroke-linejoin:round;stroke-miterlimit:10;}
</style>
<g>
	<circle class="st7" cx="98.77" cy="51.9" r="7.89"/>
	<path class="st22" d="M56.53,175.03c0,9.29-7.52,16.82-16.82,16.82c-9.29,0-16.81-7.54-16.81-16.82c0-9.3,7.52-16.82,16.81-16.82
		C49,158.21,56.53,165.73,56.53,175.03"/>
	<path class="st7" d="M100,199.99c-11.1,0-22.01-1.81-32.42-5.37c-4.13-1.41-6.31-5.9-4.9-10.02c1.41-4.13,5.9-6.31,10.02-4.92
		c8.77,3,17.94,4.54,27.3,4.54c46.43,0,84.2-37.8,84.2-84.22c0-46.43-37.76-84.2-84.2-84.2c-46.43,0-84.2,37.76-84.2,84.2
		c0,15.85,4.41,31.28,12.77,44.63c2.32,3.7,1.2,8.57-2.5,10.88c-3.68,2.32-8.56,1.2-10.88-2.5C5.27,137.14,0,118.81,0,100
		C0,44.87,44.87,0.01,100,0.01c55.13,0,100,44.86,100,99.99C200,155.13,155.13,199.99,100,199.99"/>
	<path class="st7" d="M98.77,158.21c-4.36,0-7.9-3.53-7.9-7.9V85.07c0-4.35,3.54-7.88,7.9-7.88c4.35,0,7.89,3.53,7.89,7.88v65.23
		C106.66,154.68,103.12,158.21,98.77,158.21"/>
</g>
</svg>
