<svg xmlns="http://www.w3.org/2000/svg" width="16" height="10.667" viewBox="0 0 16 10.667"><defs><style>.a{fill:#c4c7c4;}</style></defs><path class="a" d="M17.683,8.571H3.46a.892.892,0,0,0-.889.889v8.889a.892.892,0,0,0,.889.889H17.683a.892.892,0,0,0,.889-.889V9.46a.892.892,0,0,0-.889-.889ZM11.46,10.349h1.778v1.778H11.46Zm2.667,2.667v1.778H12.349V13.016h1.778ZM8.794,10.349h1.778v1.778H8.794Zm2.667,2.667v1.778H9.683V13.016H11.46ZM6.127,10.349H7.9v1.778H6.127Zm2.667,2.667v1.778H7.016V13.016ZM4.349,10.349h.889v1.778H4.349Zm0,2.667H6.127v1.778H4.349Zm.889,4.444H4.349V15.683h.889Zm8,0H6.127V15.683h7.111Zm3.556,0H14.127V15.683h2.667Zm0-2.667H15.016V13.016h1.778Zm0-2.667H14.127V10.349h2.667Z" transform="translate(-2.571 -8.571)"/></svg>