<svg xmlns="http://www.w3.org/2000/svg" width="16" height="11.2" viewBox="0 0 16 11.2"><defs><style>.a{fill:#c4c7c4;}</style></defs><path class="a" d="M15.2,2.25H.8a.8.8,0,0,0-.8.8v9.6a.8.8,0,0,0,.8.8H15.2a.8.8,0,0,0,.8-.8V3.05A.8.8,0,0,0,15.2,2.25ZM4.4,9.647v.4a.2.2,0,0,1-.2.2H3.8a.2.2,0,0,1-.2-.2V9.643a1.431,1.431,0,0,1-.784-.284.2.2,0,0,1-.014-.3l.294-.28a.205.205,0,0,1,.253-.018.6.6,0,0,0,.321.093h.7a.314.314,0,0,0,.3-.33A.326.326,0,0,0,4.448,8.2L3.322,7.865A1.131,1.131,0,0,1,2.533,6.78,1.113,1.113,0,0,1,3.6,5.653v-.4a.2.2,0,0,1,.2-.2h.4a.2.2,0,0,1,.2.2v.407a1.43,1.43,0,0,1,.784.284.2.2,0,0,1,.014.3l-.294.28a.205.205,0,0,1-.253.018.6.6,0,0,0-.32-.093h-.7a.314.314,0,0,0-.295.33.326.326,0,0,0,.219.318l1.125.337A1.131,1.131,0,0,1,5.467,8.52,1.113,1.113,0,0,1,4.4,9.647Zm6-.4a.2.2,0,0,1-.2.2H7.4a.2.2,0,0,1-.2-.2v-.4a.2.2,0,0,1,.2-.2h2.8a.2.2,0,0,1,.2.2Zm4,0a.2.2,0,0,1-.2.2h-2a.2.2,0,0,1-.2-.2v-.4a.2.2,0,0,1,.2-.2h2a.2.2,0,0,1,.2.2Zm0-2.4a.2.2,0,0,1-.2.2H7.4a.2.2,0,0,1-.2-.2v-.4a.2.2,0,0,1,.2-.2h6.8a.2.2,0,0,1,.2.2Z" transform="translate(0 -2.25)"/></svg>