<svg xmlns="http://www.w3.org/2000/svg" width="47.896" height="48" viewBox="0 0 47.896 48"><defs><style>.a{fill:#99aad7;}</style></defs><g transform="translate(23.948 24)"><g transform="translate(-23.948 -24)"><g transform="translate(0 4.858)"><path class="a" d="M27.394,161.547a3.647,3.647,0,1,1-3.647-3.647,3.647,3.647,0,0,1,3.647,3.647" transform="translate(-15.261 -124.86)"/><path class="a" d="M63.723,62.271H61.659V58.36H67.25a1.716,1.716,0,1,0,0-3.431H61.659V51.666a1.716,1.716,0,1,0-3.431,0v3.263H56.381a5.387,5.387,0,1,0,0,10.773h1.848v3.983H52.566a1.716,1.716,0,0,0,0,3.431h5.663v4.031a1.716,1.716,0,1,0,3.431,0V73.116h2.063a5.4,5.4,0,0,0,5.4-5.375V67.67A5.4,5.4,0,0,0,63.723,62.271Zm-7.342,0a1.968,1.968,0,0,1,0-3.911h1.848v3.911Zm9.31,5.471a1.968,1.968,0,0,1-1.968,1.968H61.659V65.7h2.063A1.968,1.968,0,0,1,65.69,67.67Z" transform="translate(-38.633 -42.811)"/><path class="a" d="M21.5,63.34a21.474,21.474,0,0,1-7.8-1.464,1.519,1.519,0,0,1,1.1-2.831,18.523,18.523,0,1,0-9.286-7.894A1.516,1.516,0,1,1,2.9,52.686,21.571,21.571,0,1,1,21.5,63.34Z" transform="translate(0.066 -20.198)"/></g><path class="a" d="M161.959,4.449H158.7V1.186a1.236,1.236,0,1,0-2.471,0V4.449h-3.239a1.236,1.236,0,0,0,0,2.471h3.263v3.263a1.236,1.236,0,0,0,2.471,0V6.92h3.263a1.236,1.236,0,0,0,0-2.471Z" transform="translate(-115.323 0.05)"/></g></g></svg>