<svg xmlns="http://www.w3.org/2000/svg" width="48.002" height="48" viewBox="0 0 48.002 48"><defs><style>.a{fill:#a4d071;}</style></defs><path class="a" d="M30.321,156.06A4.06,4.06,0,1,1,26.26,152a4.06,4.06,0,0,1,4.06,4.06" transform="translate(-16.852 -115.239)"/><path class="a" d="M70.532,46.428h-2.3v-4.35h6.211a1.909,1.909,0,1,0,0-3.819H68.212v-3.65a1.909,1.909,0,0,0-3.819,0v3.65h-2.03a5.994,5.994,0,1,0,0,11.988h2.054v4.447H58.109a1.909,1.909,0,1,0,0,3.819h6.284v4.471a1.909,1.909,0,0,0,3.819,0V58.512h2.3A5.994,5.994,0,0,0,76.5,52.518v-.073A5.994,5.994,0,0,0,70.532,46.428Zm-8.169,0a2.175,2.175,0,1,1,0-4.35h2.054v4.35Zm10.344,6.066a2.175,2.175,0,0,1-2.175,2.175h-2.3V50.247h2.3a2.175,2.175,0,0,1,2.175,2.175Z" transform="translate(-42.635 -24.772)"/><path class="a" d="M24.056,47.9a23.879,23.879,0,0,1-8.677-1.619,1.7,1.7,0,0,1,1.233-3.166,20.616,20.616,0,1,0-10.32-8.8,1.7,1.7,0,0,1-2.924,1.716A24,24,0,1,1,24.08,47.9Z" transform="translate(-0.074 0.102)"/></svg>