<svg xmlns="http://www.w3.org/2000/svg" width="48" height="47.998" viewBox="0 0 48 47.998"><defs><style>.a{fill:#0ac53d;}.b{fill:#3f3f3f;}</style></defs><g transform="translate(24 23.999)"><g transform="translate(-24 -23.999)"><path class="a" d="M30.32,156.06A4.06,4.06,0,1,1,26.26,152a4.06,4.06,0,0,1,4.06,4.06" transform="translate(-16.853 -115.24)"/><path class="b" d="M70.532,46.427h-2.3v-4.35h6.211a1.909,1.909,0,1,0,0-3.819H68.211V34.609a1.909,1.909,0,1,0-3.819,0v3.649h-2.03a5.994,5.994,0,1,0,0,11.987h2.054v4.447H58.109a1.909,1.909,0,1,0,0,3.819h6.284v4.471a1.909,1.909,0,1,0,3.819,0V58.511h2.3A5.994,5.994,0,0,0,76.5,52.518v-.073A5.994,5.994,0,0,0,70.532,46.427Zm-8.169,0a2.175,2.175,0,0,1,0-4.35h2.054v4.35Zm10.344,6.066a2.175,2.175,0,0,1-2.175,2.175h-2.3V50.246h2.3a2.175,2.175,0,0,1,2.175,2.175Z" transform="translate(-42.636 -24.772)"/><path class="b" d="M24.055,47.9a23.878,23.878,0,0,1-8.676-1.619,1.7,1.7,0,0,1,1.233-3.166,20.615,20.615,0,1,0-10.32-8.8,1.7,1.7,0,1,1-2.924,1.716A24,24,0,1,1,24.079,47.9Z" transform="translate(-0.074 0.102)"/></g></g></svg>