<svg xmlns="http://www.w3.org/2000/svg" width="85.004" height="85" viewBox="0 0 85.004 85"><defs><style>.a{opacity:1;}.b{fill:#0ac53d;}.c{fill:#000000;}</style></defs><g class="a" transform="translate(42.502 42.5)"><g transform="translate(-42.502 -42.5)"><path class="b" d="M36.58,159.19A7.19,7.19,0,1,1,29.39,152a7.19,7.19,0,0,1,7.19,7.19" transform="translate(-12.73 -86.902)"/><path class="c" d="M81.58,57.01H77.514v-7.7h11a3.381,3.381,0,1,0,0-6.762H77.471V36.081a3.381,3.381,0,1,0-6.762,0v6.463h-3.6a10.614,10.614,0,0,0,0,21.228h3.638v7.875H59.581a3.381,3.381,0,1,0,0,6.762H70.709v7.918a3.381,3.381,0,1,0,6.762,0V78.409h4.066A10.614,10.614,0,0,0,92.151,67.8v-.128A10.614,10.614,0,0,0,81.58,57.01Zm-14.466,0a3.852,3.852,0,1,1,0-7.7h3.638v7.7ZM85.432,67.752A3.852,3.852,0,0,1,81.58,71.6H77.514V63.772H81.58a3.852,3.852,0,0,1,3.852,3.852Z" transform="translate(-32.179 -18.661)"/><path class="c" d="M42.542,84.9A42.285,42.285,0,0,1,27.177,82.03a3.008,3.008,0,0,1,2.183-5.607A36.508,36.508,0,1,0,11.085,60.844a3,3,0,1,1-5.179,3.039A42.5,42.5,0,1,1,42.585,84.9Z" transform="translate(-0.074 0.102)"/></g></g></svg>