<?xml version="1.0" encoding="utf-8"?>
<!-- Generator: Adobe Illustrator 23.0.3, SVG Export Plug-In . SVG Version: 6.00 Build 0)  -->
<svg version="1.1" id="Capa_1" xmlns="http://www.w3.org/2000/svg" xmlns:xlink="http://www.w3.org/1999/xlink" x="0px" y="0px"
	 viewBox="0 0 200 200" style="enable-background:new 0 0 200 200;" xml:space="preserve">
<style type="text/css">
	.st0{fill:#00C83C;}
	.st1{fill:#FE9200;}
	.st2{fill:#02B1FF;}
	.st3{fill:#F28913;}
	.st4{fill:#F18A00;}
	.st5{fill:#00B2E8;}
	.st6{fill:#00B2E3;}
	.st7{fill:#3F3F3F;}
	.st8{fill:#232120;}
	.st9{fill:#3D3935;}
	.st10{fill:#009B3E;}
	.st11{fill:#009845;}
	.st12{fill:#FFFFFF;}
	.st13{fill:#6F6F6E;}
	.st14{fill:none;stroke:#00C83C;stroke-width:3.6354;stroke-miterlimit:10;}
	.st15{fill:none;stroke:#FFFFFF;stroke-width:3.6354;stroke-miterlimit:10;}
	.st16{fill:none;stroke:#3F3F3F;stroke-width:2.5387;stroke-linecap:round;stroke-linejoin:round;stroke-miterlimit:10;}
	.st17{fill:none;stroke:#00C73C;stroke-width:2.5387;stroke-linecap:round;stroke-linejoin:round;stroke-miterlimit:10;}
	.st18{fill:none;stroke:#3F3F3F;stroke-width:2.4753;stroke-linecap:round;stroke-linejoin:round;stroke-miterlimit:10;}
	.st19{fill:none;stroke:#3F3F3F;stroke-width:2.4991;stroke-linecap:round;stroke-linejoin:round;stroke-miterlimit:10;}
	.st20{fill:none;stroke:#3F3F3F;stroke-width:2.7605;stroke-linecap:round;stroke-linejoin:round;stroke-miterlimit:10;}
	.st21{fill:none;stroke:#3F3F3F;stroke-width:2.1466;stroke-linecap:round;stroke-linejoin:round;stroke-miterlimit:10;}
	.st22{fill:#00C73C;}
	.st23{fill:none;stroke:#3F3F3F;stroke-width:2;stroke-linecap:round;stroke-linejoin:round;stroke-miterlimit:10;}
	.st24{fill:#0AC53D;}
	.st25{fill:none;}
	.st26{fill:none;stroke:#3F3F3F;stroke-width:2;stroke-miterlimit:10;}
	.st27{fill:none;stroke:#3F3F3F;stroke-width:12;stroke-linecap:round;stroke-linejoin:round;stroke-miterlimit:10;}
	.st28{fill-rule:evenodd;clip-rule:evenodd;fill:#3F3F3F;}
	.st29{fill:none;stroke:#4D4D4D;stroke-width:0.5;stroke-miterlimit:10;}
	.st30{fill:none;stroke:#666666;stroke-width:0.25;stroke-miterlimit:10;}
	.st31{fill:url(#SVGID_1_);}
	.st32{fill:url(#SVGID_2_);}
	.st33{fill:url(#SVGID_3_);}
	.st34{fill:url(#SVGID_4_);}
	.st35{fill:url(#SVGID_5_);}
	.st36{fill:url(#SVGID_6_);}
	.st37{fill:none;stroke:#3D3935;stroke-miterlimit:10;}
	.st38{fill:#3F3F3F;stroke:#40403F;stroke-width:0.3248;stroke-miterlimit:10;}
	.st39{fill:#3F3F3F;stroke:#3F3F3F;stroke-width:5;stroke-linecap:round;stroke-linejoin:round;stroke-miterlimit:10;}
</style>
<g>
	<path class="st22" d="M38.32,147.31c0,9.36-7.59,16.96-16.96,16.96c-9.36,0-16.95-7.6-16.95-16.96c0-9.38,7.59-16.96,16.95-16.96
		C30.73,130.34,38.32,137.93,38.32,147.31"/>
	<g>
		<path class="st7" d="M192.59,141.69c-0.25-0.17-25.36-18.61-25.36-79.47c0-35-28.48-63.48-63.48-63.48S40.28,27.22,40.28,62.22
			c0,20.47-2.78,38.28-8.27,52.93c-1.31,3.49,0.46,7.38,3.96,8.69c0.78,0.29,1.58,0.43,2.37,0.43c2.74,0,5.31-1.67,6.32-4.38
			c6.06-16.17,9.13-35.57,9.13-57.67c0-27.55,22.42-49.97,49.97-49.97s49.97,22.42,49.97,49.97c0,41.46,10.87,65.54,19.81,78.34
			H55.62c-3.73,0-6.75,3.02-6.75,6.75s3.02,6.75,6.75,6.75h133.22c2.97,0,5.6-1.95,6.46-4.79
			C196.17,146.42,195.06,143.34,192.59,141.69z"/>
	</g>
	<path class="st7" d="M104.24,198.74c-13.75,0-24.94-11.19-24.94-24.94c0-3.36,2.72-6.08,6.08-6.08c3.36,0,6.08,2.72,6.08,6.08
		c0,7.05,5.74,12.78,12.78,12.78c7.05,0,12.78-5.73,12.78-12.78c0-3.36,2.72-6.08,6.08-6.08s6.08,2.72,6.08,6.08
		C129.17,187.56,117.99,198.74,104.24,198.74z"/>
</g>
</svg>
