<svg xmlns="http://www.w3.org/2000/svg" width="64.185" height="85" viewBox="0 0 64.185 85"><defs><style>.a{opacity:1;}.b{fill:#3f3f3f;}.c{fill:#0ac33d;}</style></defs><g class="a" transform="translate(32.093 42.5)"><g transform="translate(-32.093 -42.5)"><path class="b" d="M66.574,80.072H33.144a3.781,3.781,0,0,1,0-7.561h29.65V29.735L40.62,7.561H18.361V59.513a3.781,3.781,0,0,1-7.561,0V3.781A3.781,3.781,0,0,1,14.581,0H42.192a3.781,3.781,0,0,1,2.676,1.1L69.251,25.487a3.781,3.781,0,0,1,1.1,2.676V76.292a3.781,3.781,0,0,1-3.781,3.781Z" transform="translate(-6.17 0)"/><path class="c" d="M16.976,168.4a8.517,8.517,0,1,0,0,.042" transform="translate(0.1 -91.977)"/><path class="b" d="M61.219,81.034A37.04,37.04,0,0,1,58.161,78.4c-.977-.977-1.827-1.912-2.591-2.8,1.189-3.653,1.7-5.522,1.7-6.5,0-4.248-1.529-5.1-3.823-5.1s-3.823.892-3.823,5.225c0,1.912,1.062,4.205,3.1,6.924L50.939,81.5a27.031,27.031,0,0,1-1.062,2.676l-.892.425L46.1,86c-4.078,1.954-6.8,3.228-6.8,5.735,0,1.827,2,2.974,3.823,2.974s5.947-3.186,8.581-8.538A50.89,50.89,0,0,1,60.5,83.8c2.124,1.657,4.5,3.228,5.65,3.228,3.186,0,3.823-1.827,3.823-3.356,0-3.016-3.441-3.016-5.1-3.016a30.287,30.287,0,0,0-3.653.382ZM43.208,92.078a2.039,2.039,0,0,1-1.274-.425c0-.892,2.719-2.209,5.31-3.441l.51-.255c-1.954,2.846-3.866,4.12-4.588,4.12Zm8.921-22.9c0-2.676.85-2.676,1.274-2.676s1.274,0,1.274,2.549a19.062,19.062,0,0,1-1.019,3.993A7.546,7.546,0,0,1,52.129,69.182Zm.977,13.763.212-.68L54.592,78.4l1.7,1.784,1.614,1.444C56.376,82.011,54.72,82.436,53.106,82.945Zm14.358.68c0,.595,0,.807-1.189.807A9.43,9.43,0,0,1,64.108,83.2h.765c1.912-.085,2.464.127,2.591.382Z" transform="translate(-22.563 -36.814)"/></g></g></svg>