<svg xmlns="http://www.w3.org/2000/svg" width="16" height="16" viewBox="0 0 16 16"><defs><style>.a{fill:#00c73c;}</style></defs><g transform="translate(-289 -571)"><path class="a" d="M297,571a8,8,0,1,0,8,8A8,8,0,0,0,297,571Zm-.08,13.28a1.12,1.12,0,1,1,1.12-1.12h0a1.094,1.094,0,0,1-1.067,1.12Zm2.16-6.24-.88.96a.977.977,0,0,0-.32.72.973.973,0,0,1-.96.96.924.924,0,0,1-.96-.887c0-.024,0-.049,0-.073a1.785,1.785,0,0,1,.64-1.44l.72-.88a1.813,1.813,0,0,0,.56-1.12.839.839,0,0,0-.8-.88q-.042,0-.084,0a.942.942,0,0,0-.96.72,1.046,1.046,0,0,1-.96.56.839.839,0,0,1-.88-.8q0-.042,0-.084a.874.874,0,0,1,.08-.4,2.666,2.666,0,0,1,2.72-1.68,2.592,2.592,0,0,1,2.792,2.376c.005.061.007.122.008.184A2.624,2.624,0,0,1,299.08,578.04Z"/></g></svg>