<svg xmlns="http://www.w3.org/2000/svg" width="85" height="70.508" viewBox="0 0 85 70.508"><defs><style>.a{opacity:1;}.b{fill:#00c53c;}.c{fill:#000000;}</style></defs><g class="a" transform="translate(42.5 35.254)"><g transform="translate(-42.5 -35.254)"><path class="b" d="M12.41,101.705a6.205,6.205,0,1,1-6.2-6.205,6.205,6.205,0,0,1,6.2,6.205" transform="translate(0 -54.912)"/><path class="c" d="M31.98,70.507a2.89,2.89,0,0,1,0-5.78H41.5V52.233H19.952a2.89,2.89,0,0,1,0-5.78H78.9a1.7,1.7,0,0,0,1.7-1.7V7.48a1.7,1.7,0,0,0-1.7-1.7H9.88a1.7,1.7,0,0,0-1.7,1.7V33.745a2.89,2.89,0,0,1-5.78,0V7.48A7.48,7.48,0,0,1,9.88,0H78.9a7.48,7.48,0,0,1,7.48,7.48V44.752a7.48,7.48,0,0,1-7.48,7.48H47.28V64.727H56.8a2.89,2.89,0,1,1,0,5.78Z" transform="translate(-1.38 0)"/><path class="c" d="M92.781,26.81v-.935l-.085-.128-.085-.127-.085-.127-.085-.128-.085-.128-.128-.17h-.34l-.17-.128-.127-.085-.128-.085-.128-.085-.128-.085H77.1a2.975,2.975,0,0,0,0,5.95h5.525l-16.83,16.4L55.424,36.543a2.975,2.975,0,0,0-4.208,0L38.721,49.038a2.975,2.975,0,1,0,4.208,4.208l10.412-10.37,10.37,10.37a2.975,2.975,0,0,0,4.208,0L86.874,34.29v5.525a2.975,2.975,0,0,0,5.95,0V27.108C92.824,27.023,92.781,26.938,92.781,26.81Z" transform="translate(-21.764 -14.145)"/></g></g></svg>