<svg xmlns="http://www.w3.org/2000/svg" width="300" height="300" viewBox="0 0 300 300"><defs><style>.a,.b{fill:#fff;}.a,.c{opacity:0.5;}.c,.g{fill:none;}.c{stroke:#fff;}.d{fill:#00c73c;}.e{fill:#3f3f3f;}.f{stroke:none;}</style></defs><g transform="translate(12.14 -92)"><circle class="a" cx="128.939" cy="128.939" r="128.939" transform="translate(8.922 113.051)"/><circle class="b" cx="106.384" cy="106.384" r="106.384" transform="translate(31.86 136)"/><g class="c" transform="translate(-12.14 92)"><circle class="f" cx="150" cy="150" r="150"/><circle class="g" cx="150" cy="150" r="149.5"/></g><g transform="translate(138.86 242.998)"><g transform="translate(-50 -49.998)"><path class="d" d="M39.7,166.6a8.4,8.4,0,1,1-8.4-8.4,8.4,8.4,0,0,1,8.4,8.4" transform="translate(-11.45 -79.103)"/><path class="e" d="M50,99.993a49.947,49.947,0,0,1-16.2-2.7,3.95,3.95,0,0,1,2.55-7.45A42.1,42.1,0,1,0,14.3,72.345a3.95,3.95,0,0,1-6.7,4.15A50,50,0,1,1,50,99.993" transform="translate(0.002 0.003)"/><path class="e" d="M62.342,105.191a3.75,3.75,0,0,1-2.65-1.1l-16.7-16.7a3.75,3.75,0,0,1,5.3-5.3l14,14,34-34a3.75,3.75,0,0,1,5.3,5.3l-36.6,36.7a3.75,3.75,0,0,1-2.65,1.1Z" transform="translate(-20.994 -30.544)"/></g></g></g></svg>