<svg xmlns="http://www.w3.org/2000/svg" width="50.751" height="50.8" viewBox="0 0 50.751 50.8"><defs><style>.a{fill:none;stroke:#63aabc;stroke-width:3px;}.b{fill:#63aabc;}</style></defs><g transform="translate(1.251 1.5)"><path class="a" d="M1.543,7.228,40.76,46.486a4.232,4.232,0,0,0,7.221-2.991V6.231A6.228,6.228,0,0,0,41.756,0H4.531A4.238,4.238,0,0,0,1.543,7.228Z" transform="translate(0.019)"/><path class="b" d="M2.1,36.6h0a7.2,7.2,0,0,0,12.4-5.1h0a7.2,7.2,0,0,0-7.2-7.2h0A7.2,7.2,0,0,0,2.1,36.6Z" transform="translate(0.019 9.43)"/></g></svg>