<?xml version="1.0" encoding="utf-8"?>
<!-- Generator: Adobe Illustrator 23.0.3, SVG Export Plug-In . SVG Version: 6.00 Build 0)  -->
<svg version="1.1" id="Capa_1" xmlns="http://www.w3.org/2000/svg" xmlns:xlink="http://www.w3.org/1999/xlink" x="0px" y="0px"
	 viewBox="0 0 200 200" style="enable-background:new 0 0 200 200;" xml:space="preserve">
<style type="text/css">
	.st0{fill:#00C83C;}
	.st1{fill:#FE9200;}
	.st2{fill:#02B1FF;}
	.st3{fill:#F28913;}
	.st4{fill:#F18A00;}
	.st5{fill:#00B2E8;}
	.st6{fill:#00B2E3;}
	.st7{fill:#3F3F3F;}
	.st8{fill:#232120;}
	.st9{fill:#3D3935;}
	.st10{fill:#009B3E;}
	.st11{fill:#009845;}
	.st12{fill:#FFFFFF;}
	.st13{fill:#6F6F6E;}
	.st14{fill:none;stroke:#00C83C;stroke-width:3.6354;stroke-miterlimit:10;}
	.st15{fill:none;stroke:#FFFFFF;stroke-width:3.6354;stroke-miterlimit:10;}
	.st16{fill:none;stroke:#3F3F3F;stroke-width:2.5387;stroke-linecap:round;stroke-linejoin:round;stroke-miterlimit:10;}
	.st17{fill:none;stroke:#00C73C;stroke-width:2.5387;stroke-linecap:round;stroke-linejoin:round;stroke-miterlimit:10;}
	.st18{fill:none;stroke:#3F3F3F;stroke-width:2.4753;stroke-linecap:round;stroke-linejoin:round;stroke-miterlimit:10;}
	.st19{fill:none;stroke:#3F3F3F;stroke-width:2.4991;stroke-linecap:round;stroke-linejoin:round;stroke-miterlimit:10;}
	.st20{fill:none;stroke:#3F3F3F;stroke-width:2.7605;stroke-linecap:round;stroke-linejoin:round;stroke-miterlimit:10;}
	.st21{fill:none;stroke:#3F3F3F;stroke-width:2.1466;stroke-linecap:round;stroke-linejoin:round;stroke-miterlimit:10;}
	.st22{fill:#00C73C;}
	.st23{fill:none;stroke:#3F3F3F;stroke-width:2;stroke-linecap:round;stroke-linejoin:round;stroke-miterlimit:10;}
	.st24{fill:#0AC53D;}
	.st25{fill:none;}
	.st26{fill:none;stroke:#3F3F3F;stroke-width:2;stroke-miterlimit:10;}
	.st27{fill:none;stroke:#3F3F3F;stroke-width:12;stroke-linecap:round;stroke-linejoin:round;stroke-miterlimit:10;}
	.st28{fill-rule:evenodd;clip-rule:evenodd;fill:#3F3F3F;}
	.st29{fill:none;stroke:#4D4D4D;stroke-width:0.5;stroke-miterlimit:10;}
	.st30{fill:none;stroke:#666666;stroke-width:0.25;stroke-miterlimit:10;}
	.st31{fill:url(#SVGID_1_);}
	.st32{fill:url(#SVGID_2_);}
	.st33{fill:url(#SVGID_3_);}
	.st34{fill:url(#SVGID_4_);}
	.st35{fill:url(#SVGID_5_);}
	.st36{fill:url(#SVGID_6_);}
	.st37{fill:none;stroke:#3D3935;stroke-miterlimit:10;}
	.st38{fill:#3F3F3F;stroke:#40403F;stroke-width:0.3248;stroke-miterlimit:10;}
	.st39{fill:#3F3F3F;stroke:#3F3F3F;stroke-width:5;stroke-linecap:round;stroke-linejoin:round;stroke-miterlimit:10;}
</style>
<g>
	<path class="st7" d="M193.27,179.19H56.5c-3.72,0-6.73-3.01-6.73-6.73s3.01-6.73,6.73-6.73h125.13L103.49,30.41L38.48,143.02
		c-1.86,3.22-5.97,4.32-9.19,2.46c-3.22-1.86-4.32-5.97-2.46-9.19l70.84-122.7c1.2-2.08,3.42-3.36,5.83-3.36
		c2.4,0,4.62,1.28,5.83,3.36L199.1,169.1c1.2,2.08,1.2,4.65,0,6.73C197.9,177.9,195.68,179.19,193.27,179.19z"/>
	<circle class="st7" cx="102.21" cy="146.92" r="8.17"/>
	<path class="st22" d="M34.81,172.36c0,9.61-7.79,17.41-17.41,17.41c-9.61,0-17.4-7.8-17.4-17.41c0-9.62,7.79-17.41,17.4-17.41
		C27.02,154.95,34.81,162.74,34.81,172.36"/>
	<path class="st7" d="M102.21,64.1c3.48,0,6.3,2.81,6.3,6.3v52.03c0,3.47-2.82,6.28-6.3,6.28c-3.47,0-6.29-2.81-6.29-6.28V70.41
		C95.92,66.92,98.74,64.1,102.21,64.1"/>
</g>
</svg>
